<?xml version="1.0" encoding="UTF-8" standalone="no"?>
<svg
   version="1.1"
   width="566.9292"
   height="566.92908"
   id="svg15"
   viewBox="0 0 566.9292 566.92908"
   sodipodi:docname="f9e2eccdea750a9b25dbca0762b24b18.cdr"
   xmlns:inkscape="http://www.inkscape.org/namespaces/inkscape"
   xmlns:sodipodi="http://sodipodi.sourceforge.net/DTD/sodipodi-0.dtd"
   xmlns="http://www.w3.org/2000/svg"
   xmlns:svg="http://www.w3.org/2000/svg">
  <defs
     id="defs19" />
  <sodipodi:namedview
     id="namedview17"
     pagecolor="#ffffff"
     bordercolor="#666666"
     borderopacity="1.0"
     inkscape:pageshadow="2"
     inkscape:pageopacity="0.0"
     inkscape:pagecheckerboard="0" />
  <g
     id="Layer1000"
     transform="translate(-652.5493,-47.6215)">
    <path
       d="m 652.5493,47.6215 v 566.9291 h 566.9292 V 47.6215 Z"
       style="fill:#619c75;fill-rule:evenodd"
       id="path2" />
    <path
       d="m 800.5561,614.5506 c 18.5074,-62.9694 33.2461,-118.4009 47.9849,-185.1392 66.5807,-11.2388 112.106,-7.4707 170.5549,-12.1932 -10.2577,-27.4694 -21.0438,-56.3278 -31.3013,-83.7975 -55.9057,-3.8186 -97.2924,-5.4034 -158.7821,-11.0092 l 27.0219,-14.9171 363.4441,-47.9123 v 354.9685 z"
       style="fill:#fecb6b;fill-rule:evenodd"
       id="path4" />
    <path
       d="m 818.962,614.5506 c -45.8884,-174.7817 -49.4526,-250.0787 21.3109,-293.6063 120.5339,-9.9746 252.8036,-29.3375 379.2056,-44.0065 V 47.6215 H 652.5493 v 566.9291 z"
       style="fill:none"
       id="path6" />
    <path
       d="m 818.962,614.5506 c -45.8884,-174.7817 -49.4526,-250.0787 21.3109,-293.6063 120.5339,-9.9746 252.8036,-29.3375 379.2056,-44.0065 V 47.6215 H 652.5493 v 566.9291 z"
       style="fill:#ef84b3;fill-rule:evenodd"
       id="path8" />
    <path
       d="m 652.5493,47.6215 h 566.9292 l -16.2667,189.3288 -56.33,240.446 c -15.2998,-3.651 -29.4171,-7.3021 -44.7166,-10.9531 -8.325,-11.7417 -61.9616,-38.0619 -79.9398,-41.726 C 999.976,410.8039 977.7266,397.2847 955.4774,383.3717 996.313,290.6212 1036.2053,280.6418 994.218,198.6931 983.0928,140.8473 970.1895,126.4683 948.3953,104.5814 909.4351,85.7169 910.398,68.466 652.5493,47.6215 Z"
       style="fill:#916b5e;fill-rule:evenodd"
       id="path10" />
    <path
       d="m 652.5493,47.6215 h 566.9291 V 614.5506 H 652.5493 Z m 283.4617,0 c 156.1279,0 283.4674,127.3395 283.4674,283.4674 0,156.1222 -127.3395,283.4617 -283.4674,283.4617 -156.1222,0 -283.4617,-127.3395 -283.4617,-283.4617 0,-156.1279 127.3395,-283.4674 283.4617,-283.4674 z"
       style="fill:#ffffff;fill-rule:evenodd"
       id="path12" />
  </g>
</svg>
